<svg width="1220" height="117" viewBox="0 0 1220 117" fill="none" xmlns="http://www.w3.org/2000/svg">
<path d="M150.854 15.8705C149.904 15.6331 148.598 15.3957 146.106 17.0574C142.901 19.3125 139.459 22.9919 135.186 26.4339C123.08 36.4039 115.84 37.5909 106.938 37.3535C93.2886 36.8787 79.8765 24.4162 69.6691 18.0069C63.7346 14.3275 53.2898 10.292 42.6077 10.292C33.9433 10.292 29.433 11.4789 23.0237 14.8022C18.2761 17.2947 14.5967 20.0246 11.1546 23.2293C5.45749 28.9264 1.42201 37.5908 0.709866 40.0834C0.235103 42.3385 -0.833113 44.831 1.18463 46.2553C2.37154 47.2048 4.1519 46.73 5.93226 45.5431C8.42476 44.0001 9.61167 42.5759 12.1042 40.5581C18.0387 35.3357 21.8368 32.8432 28.2461 30.3507C31.4507 29.1638 37.3853 28.0956 42.1329 27.8582C53.5272 27.6208 62.429 34.861 69.9065 40.3207C75.8411 44.5936 91.7456 54.6823 106.701 54.9197C123.792 55.3944 131.982 48.273 137.442 42.4572C144.919 34.7423 147.174 30.5881 149.548 25.8405C150.735 23.348 152.278 20.1433 152.753 18.1256C152.634 17.0574 151.803 16.3452 150.854 15.8705Z" fill="url(#paint0_linear_354_44)"/>
<path d="M150.854 72.1292C149.904 71.8919 148.598 71.6545 146.106 73.3161C142.901 75.5713 139.459 79.2507 135.186 82.6927C123.08 92.6627 115.84 93.8496 106.938 93.6123C93.2886 93.1375 79.8765 80.675 69.6691 74.2657C63.7346 70.5863 53.2898 66.5508 42.6077 66.5508C33.9433 66.5508 29.433 67.7377 23.0237 71.061C18.2761 73.5535 14.5967 76.2834 11.1546 79.4881C5.45749 85.1852 1.42201 93.8496 0.709866 96.3421C0.235103 98.5973 -0.833113 101.09 1.18463 102.514C2.37154 103.464 4.1519 102.989 5.93226 101.802C8.42476 100.259 9.61167 98.8346 12.1042 96.8169C18.0387 91.5945 21.8368 89.102 28.2461 86.6095C31.4507 85.4226 37.3853 84.3544 42.1329 84.117C53.5272 83.8796 62.429 91.1198 69.9065 96.5795C75.8411 100.852 91.7456 110.941 106.701 111.178C123.792 111.653 131.982 104.532 137.442 98.716C144.919 91.0011 147.174 86.8469 149.548 82.0993C150.735 79.6068 152.278 76.4021 152.753 74.3844C152.634 73.4348 151.803 72.7227 150.854 72.1292Z" fill="url(#paint1_linear_354_44)"/>
<path d="M219.201 112.518C217.903 111.22 217.124 109.533 217.124 107.586V12.846C217.124 10.8993 217.773 9.2121 219.201 7.78451C220.498 6.35691 222.185 5.70801 224.132 5.70801H286.687C288.504 5.70801 290.191 6.35691 291.489 7.65473C292.787 8.95254 293.435 10.5099 293.435 12.4566C293.435 14.2736 292.787 15.8309 291.489 17.1288C290.191 18.4266 288.634 18.9457 286.687 18.9457H231.27V53.4675H281.106C282.923 53.4675 284.61 54.1164 285.908 55.4142C287.206 56.7121 287.855 58.2694 287.855 60.2161C287.855 62.0331 287.206 63.5905 285.908 64.8883C284.61 66.1861 283.053 66.7052 281.106 66.7052H231.27V101.357H286.687C288.504 101.357 290.191 102.006 291.489 103.304C292.787 104.601 293.435 106.159 293.435 108.105C293.435 109.922 292.787 111.48 291.489 112.778C290.191 114.075 288.634 114.594 286.687 114.594H224.132C222.185 114.594 220.628 113.946 219.201 112.518Z" fill="black"/>
<path d="M316.018 113.299C314.72 112.001 313.941 110.314 313.941 108.367V7.13797C313.941 5.19125 314.59 3.5041 316.018 2.0765C317.316 0.648907 319.003 0 320.95 0C323.026 0 324.713 0.648907 326.141 2.0765C327.439 3.37431 328.217 5.19125 328.217 7.26775V108.497C328.217 110.444 327.568 112.131 326.141 113.429C324.713 114.727 323.026 115.505 321.079 115.505C319.003 115.376 317.316 114.727 316.018 113.299Z" fill="black"/>
<path d="M366.891 110.966C360.792 107.591 356.249 102.66 352.875 96.4301C349.631 90.2006 347.943 82.9329 347.943 74.7567C347.943 66.5805 349.631 59.4425 352.875 53.0832C356.12 46.8537 360.792 41.922 366.891 38.5477C372.861 35.1734 379.999 33.3564 387.916 33.3564C395.833 33.3564 402.841 35.0436 408.811 38.5477C414.781 41.922 419.583 46.8537 422.827 53.0832C426.201 59.4425 427.759 66.5805 427.759 74.7567C427.759 82.9329 426.072 90.0709 422.827 96.4301C419.453 102.789 414.781 107.591 408.811 110.966C402.711 114.34 395.833 116.157 387.916 116.157C379.999 116.157 372.861 114.47 366.891 110.966ZM400.115 100.194C404.009 98.2471 407.253 95.1323 409.849 90.8496C412.445 86.5668 413.613 81.116 413.613 74.6269C413.613 68.1378 412.315 62.8168 409.849 58.534C407.253 54.2512 404.139 51.1365 400.115 49.1898C396.222 47.243 392.069 46.3346 387.916 46.3346C383.503 46.3346 379.35 47.243 375.457 49.1898C371.564 51.1365 368.319 54.2512 365.853 58.534C363.387 62.8168 362.09 68.1378 362.09 74.6269C362.09 81.116 363.387 86.5668 365.853 90.8496C368.319 95.1323 371.564 98.2471 375.457 100.194C379.35 102.141 383.503 103.179 387.916 103.179C392.329 103.179 396.222 102.27 400.115 100.194Z" fill="black"/>
<path d="M449.692 113.303C448.394 112.005 447.616 110.318 447.616 108.371V41.404C447.616 39.4572 448.265 37.7701 449.692 36.3425C450.99 34.9149 452.677 34.266 454.624 34.266C456.571 34.266 458.258 34.9149 459.685 36.3425C461.113 37.7701 461.762 39.4572 461.762 41.404V47.7632C464.617 43.6102 468.121 40.1062 472.274 37.5105C476.427 34.7851 481.748 33.4873 488.237 33.4873C494.077 33.4873 499.009 35.0447 503.162 38.1594C507.315 41.2742 510.3 45.0378 512.117 49.5802C518.606 38.8083 528.08 33.4873 540.799 33.4873C546.639 33.4873 551.441 34.9149 555.334 37.8999C559.228 40.7551 562.083 44.5187 564.03 49.1908C565.846 53.7332 566.885 58.5351 566.885 63.5966V108.501C566.885 110.448 566.236 112.135 564.808 113.433C563.381 114.73 561.693 115.509 559.747 115.509C557.8 115.509 556.113 114.86 554.815 113.433C553.517 112.135 552.739 110.448 552.739 108.501V66.1922C552.739 59.4436 551.571 54.5119 549.105 51.2673C546.769 48.1526 542.616 46.4654 536.775 46.4654C531.454 46.4654 527.042 47.893 523.538 50.6184C520.034 53.3438 516.919 56.9777 514.194 61.5201V108.371C514.194 110.318 513.545 112.005 512.117 113.303C510.689 114.601 509.002 115.379 507.056 115.379C505.109 115.379 503.422 114.73 502.124 113.303C500.826 112.005 500.047 110.318 500.047 108.371V66.1922C500.047 59.4436 498.879 54.5119 496.413 51.2673C494.077 48.1526 489.924 46.4654 484.084 46.4654C478.763 46.4654 474.351 47.893 470.847 50.6184C467.342 53.3438 464.228 56.9777 461.502 61.5201V108.371C461.502 110.318 460.853 112.005 459.426 113.303C457.998 114.601 456.311 115.379 454.364 115.379C452.677 115.379 451.12 114.73 449.692 113.303Z" fill="black"/>
<path d="M592.063 16.4831C590.505 14.9257 589.727 13.1088 589.727 10.9025V10.2536C589.727 8.04729 590.505 6.23035 592.063 4.67298C593.62 3.1156 595.437 2.33691 597.643 2.33691H598.552C600.758 2.33691 602.575 3.1156 604.132 4.67298C605.69 6.23035 606.468 8.04729 606.468 10.2536V10.9025C606.468 13.1088 605.69 14.9257 604.132 16.4831C602.575 18.0404 600.758 18.8191 598.552 18.8191H597.643C595.437 18.8191 593.62 18.0404 592.063 16.4831ZM592.971 113.3C591.673 112.002 590.895 110.315 590.895 108.368V41.4011C590.895 39.4544 591.544 37.7672 592.971 36.3396C594.269 34.912 595.956 34.2631 597.903 34.2631C599.979 34.2631 601.666 34.912 603.094 36.3396C604.392 37.6374 605.171 39.4544 605.171 41.5309V108.498C605.171 110.445 604.522 112.132 603.094 113.43C601.666 114.728 599.979 115.506 598.033 115.506C595.956 115.376 594.399 114.728 592.971 113.3Z" fill="black"/>
<path d="M637.356 113.302C633.463 111.485 630.348 108.759 628.012 105.126C625.676 101.492 624.638 97.3386 624.638 92.6665C624.638 85.0094 627.623 78.7799 633.722 74.2376C639.822 69.6952 648.777 67.3591 660.457 67.3591H679.276V66.0613C679.276 59.1829 677.588 54.2512 674.214 51.2663C670.84 48.2813 665.519 46.7239 658.381 46.7239C654.487 46.7239 650.854 46.9835 647.869 47.6324C644.754 48.2813 641.379 49.1898 637.616 50.4876C636.837 50.7471 636.058 50.7471 635.539 50.7471C633.982 50.7471 632.684 50.228 631.516 49.06C630.348 47.8919 629.829 46.4644 629.829 44.907C629.829 42.0518 631.127 40.1051 633.852 38.937C642.677 35.1734 651.632 33.3564 660.847 33.3564C667.985 33.3564 674.084 34.784 679.016 37.769C683.948 40.6242 687.582 44.5176 689.918 49.06C692.254 53.7321 693.422 58.6638 693.422 64.1146V108.24C693.422 110.187 692.773 111.874 691.345 113.172C689.918 114.47 688.231 115.248 686.284 115.248C684.337 115.248 682.65 114.6 681.352 113.172C680.054 111.874 679.276 110.187 679.276 108.24V104.217C671.619 112.134 661.755 116.027 649.945 116.027C645.532 116.157 641.25 115.248 637.356 113.302ZM668.634 100.324C672.916 98.1173 676.55 95.2621 679.405 92.0176V78.9097H662.404C646.701 78.9097 638.784 83.0627 638.784 91.2389C638.784 95.0026 640.082 97.9875 642.548 100.324C645.143 102.66 649.296 103.698 655.266 103.698C659.938 103.698 664.351 102.53 668.634 100.324Z" fill="black"/>
<path d="M762.984 113.302C761.686 112.004 760.908 110.317 760.908 108.37V12.0725C760.908 10.1258 761.557 8.43867 762.984 7.01107C764.282 5.58348 765.969 4.93457 767.916 4.93457C769.863 4.93457 771.55 5.58348 772.977 7.01107C774.405 8.43867 775.054 10.1258 775.054 12.0725V53.6026H834.234V12.0725C834.234 10.1258 834.883 8.43867 836.311 7.01107C837.608 5.58348 839.296 4.93457 841.242 4.93457C843.189 4.93457 844.876 5.58348 846.304 7.01107C847.731 8.43867 848.38 10.1258 848.38 12.0725V108.37C848.38 110.317 847.731 112.004 846.304 113.302C844.876 114.6 843.189 115.378 841.242 115.378C839.296 115.378 837.608 114.73 836.311 113.302C835.013 112.004 834.234 110.317 834.234 108.37V66.8402H775.054V108.37C775.054 110.317 774.405 112.004 772.977 113.302C771.55 114.6 769.863 115.378 767.916 115.378C765.969 115.378 764.282 114.73 762.984 113.302Z" fill="black"/>
<path d="M879.528 105.255C872.39 97.9875 868.886 87.8646 868.886 74.7567C868.886 67.3591 870.184 60.6105 872.909 54.2512C875.634 48.0217 879.787 42.9603 885.368 39.0668C890.949 35.1734 897.957 33.3564 906.133 33.3564C913.79 33.3564 920.539 35.1734 926.119 38.6775C931.7 42.1816 935.983 47.1133 938.968 53.0832C941.823 59.0531 943.38 65.5422 943.38 72.6802C943.38 74.6269 942.731 76.314 941.434 77.6119C940.136 78.9097 938.449 79.6884 936.242 79.6884H883.291C884.07 86.9561 886.796 92.6665 891.468 96.6897C896.01 100.713 902.499 102.789 910.675 102.789C915.088 102.789 918.852 102.4 922.096 101.492C925.341 100.713 928.585 99.4151 931.7 97.8577C932.479 97.4684 933.517 97.2088 934.555 97.2088C936.242 97.2088 937.67 97.728 938.968 98.896C940.265 100.064 940.785 101.492 940.785 103.309C940.785 105.645 939.487 107.462 936.761 109.019C932.738 111.355 928.715 113.042 924.692 114.21C920.798 115.378 915.607 115.897 909.378 115.897C896.659 116.157 886.666 112.523 879.528 105.255ZM929.234 68.2676C928.974 63.2061 927.547 58.9234 925.211 55.4193C922.875 52.045 920.02 49.4493 916.515 47.8919C913.141 46.3346 909.637 45.4261 906.003 45.4261C902.369 45.4261 898.995 46.2048 895.491 47.8919C892.117 49.4493 889.132 52.045 886.925 55.4193C884.589 58.7936 883.291 63.0764 883.032 68.2676H929.234Z" fill="black"/>
<path d="M969.596 113.302C965.703 111.485 962.588 108.759 960.252 105.126C957.916 101.492 956.878 97.3386 956.878 92.6665C956.878 85.0094 959.863 78.7799 965.963 74.2376C972.062 69.6952 981.017 67.3591 992.698 67.3591H1011.52V66.0613C1011.52 59.1829 1009.83 54.2512 1006.45 51.2663C1003.08 48.2813 997.759 46.7239 990.621 46.7239C986.728 46.7239 983.094 46.9835 980.109 47.6324C976.994 48.2813 973.62 49.1898 969.856 50.4876C969.077 50.7471 968.299 50.7471 967.78 50.7471C966.222 50.7471 964.924 50.228 963.756 49.06C962.588 47.8919 962.069 46.4644 962.069 44.907C962.069 42.0518 963.367 40.1051 966.092 38.937C974.918 35.1734 983.872 33.3564 993.087 33.3564C1000.22 33.3564 1006.32 34.784 1011.26 37.769C1016.19 40.6242 1019.82 44.5176 1022.16 49.06C1024.49 53.7321 1025.66 58.6638 1025.66 64.1146V108.24C1025.66 110.187 1025.01 111.874 1023.59 113.172C1022.16 114.47 1020.47 115.248 1018.52 115.248C1016.58 115.248 1014.89 114.6 1013.59 113.172C1012.29 111.874 1011.52 110.187 1011.52 108.24V104.217C1003.86 112.134 993.995 116.027 982.185 116.027C977.773 116.157 973.49 115.248 969.596 113.302ZM1000.87 100.324C1005.16 98.1173 1008.79 95.2621 1011.65 92.0176V78.9097H994.644C978.941 78.9097 971.024 83.0627 971.024 91.2389C971.024 95.0026 972.322 97.9875 974.788 100.324C977.383 102.66 981.536 103.698 987.506 103.698C992.178 103.698 996.591 102.53 1000.87 100.324Z" fill="black"/>
<path d="M1051.75 113.299C1050.45 112.001 1049.67 110.314 1049.67 108.367V7.13797C1049.67 5.19125 1050.32 3.5041 1051.75 2.0765C1053.05 0.648907 1054.73 0 1056.68 0C1058.76 0 1060.44 0.648907 1061.87 2.0765C1063.17 3.37431 1063.95 5.19125 1063.95 7.26775V108.497C1063.95 110.444 1063.3 112.131 1061.87 113.429C1060.44 114.727 1058.76 115.505 1056.81 115.505C1054.86 115.376 1053.18 114.727 1051.75 113.299Z" fill="black"/>
<path d="M1093.28 95.5195V47.1111H1082.25C1081.47 47.1111 1080.69 46.8515 1080.17 46.2026C1079.65 45.6835 1079.26 44.9048 1079.26 44.1261C1079.26 43.0879 1079.78 42.1794 1080.69 41.5305L1101.97 20.7655C1102.88 19.857 1103.79 19.3379 1104.57 19.3379C1105.35 19.3379 1106.13 19.5975 1106.65 20.2464C1107.16 20.8953 1107.55 21.5442 1107.55 22.4526V34.9116H1125.2C1127.02 34.9116 1128.45 35.4308 1129.62 36.5988C1130.78 37.7668 1131.3 39.1944 1131.3 41.0114C1131.3 42.6985 1130.78 44.1261 1129.62 45.2941C1128.45 46.4622 1127.02 47.1111 1125.2 47.1111H1107.55V94.2217C1107.55 98.2449 1108.46 100.841 1110.41 102.009C1112.36 103.047 1114.69 103.696 1117.68 103.696C1119.75 103.696 1121.83 103.436 1123.91 102.787C1124.3 102.657 1124.81 102.528 1125.2 102.528C1125.72 102.398 1126.24 102.398 1127.02 102.398C1128.45 102.398 1129.75 102.917 1130.91 104.085C1132.08 105.123 1132.6 106.551 1132.6 108.108C1132.6 110.444 1131.43 112.261 1128.97 113.559C1124.94 115.376 1120.53 116.414 1115.99 116.414C1100.93 116.155 1093.28 109.276 1093.28 95.5195Z" fill="black"/>
<path d="M1150.25 113.299C1148.95 112.001 1148.17 110.314 1148.17 108.367V7.13797C1148.17 5.19125 1148.82 3.5041 1150.25 2.0765C1151.55 0.648907 1153.24 0 1155.18 0C1157.13 0 1158.82 0.648907 1160.24 2.0765C1161.67 3.5041 1162.32 5.19125 1162.32 7.13797V47.8893C1166.21 43.4767 1170.5 39.9726 1175.17 37.377C1179.71 34.7814 1185.16 33.4836 1191.39 33.4836C1197.1 33.4836 1202.03 34.7814 1206.32 37.5068C1210.47 40.2322 1213.71 43.8661 1216.05 48.5382C1218.26 53.2103 1219.42 58.4016 1219.42 63.9822V108.367C1219.42 110.314 1218.78 112.001 1217.35 113.299C1215.92 114.597 1214.23 115.376 1212.29 115.376C1210.34 115.376 1208.65 114.727 1207.36 113.299C1206.06 112.001 1205.28 110.314 1205.28 108.367V65.6693C1205.28 52.9508 1199.57 46.5915 1188.15 46.5915C1182.96 46.5915 1178.28 47.8893 1174.13 50.6147C1169.98 53.3401 1166.08 56.974 1162.45 61.5163V108.367C1162.45 110.314 1161.8 112.001 1160.37 113.299C1158.95 114.597 1157.26 115.376 1155.31 115.376C1153.24 115.376 1151.55 114.727 1150.25 113.299Z" fill="black"/>
<defs>
<linearGradient id="paint0_linear_354_44" x1="-0.00227827" y1="32.6177" x2="152.753" y2="32.6177" gradientUnits="userSpaceOnUse">
<stop stop-color="#FF806B"/>
<stop offset="0.5" stop-color="#7D3D80"/>
<stop offset="0.81" stop-color="#332573"/>
<stop offset="1" stop-color="#07176C"/>
</linearGradient>
<linearGradient id="paint1_linear_354_44" x1="-0.00227827" y1="88.8765" x2="1.18463" y2="88.8765" gradientUnits="userSpaceOnUse">
<stop stop-color="#FF806B"/>
<stop offset="0.5" stop-color="#7D3D80"/>
<stop offset="0.81" stop-color="#332573"/>
<stop offset="1" stop-color="#07176C"/>
</linearGradient>
</defs>
</svg>
