<svg width="80" height="54" viewBox="0 0 80 54" fill="none" xmlns="http://www.w3.org/2000/svg">
<path d="M78.2465 3.55385C77.7326 3.42538 77.0903 3.29691 75.8056 4.19619C74.1355 5.35241 72.3369 7.27944 70.1529 9.078C63.858 14.2167 60.1325 14.8591 55.5076 14.7306C48.4418 14.4737 41.5045 8.05025 36.2373 4.71007C33.1541 2.78304 27.7584 0.727539 22.2342 0.727539C17.7378 0.727539 15.4253 1.36989 12.0852 3.03998C9.64425 4.32466 7.71716 5.73782 5.9186 7.40791C2.96382 10.3627 0.908383 14.8591 0.522977 16.1438C0.26604 17.3 -0.247898 18.5847 0.779852 19.3555C1.42219 19.8694 2.32151 19.6124 3.22079 18.9701C4.50547 18.1993 5.14782 17.4285 6.4325 16.4007C9.51575 13.7029 11.4428 12.4182 14.783 11.1335C16.4531 10.4912 19.5363 9.97728 21.9772 9.84881C27.8867 9.72035 32.5117 13.4459 36.3658 16.2722C39.449 18.4562 47.6709 23.7234 55.379 23.8519C64.2434 24.1088 68.4829 20.3832 71.3092 17.4285C75.1632 13.4459 76.3195 11.262 77.6042 8.82107C78.2465 7.53638 79.0174 5.86629 79.2743 4.83854C79.1458 4.19619 78.7604 3.81079 78.2465 3.55385Z" fill="white"/>
<path d="M78.2465 32.716C77.7326 32.5875 77.0903 32.459 75.8056 33.3583C74.1355 34.5145 72.3369 36.4415 70.1529 38.2401C63.858 43.3789 60.1325 44.0212 55.5076 43.8927C48.4418 43.6358 41.5045 37.2124 36.2373 33.8722C33.1541 31.9451 27.7584 29.8896 22.2342 29.8896C17.7378 29.8896 15.4253 30.532 12.0852 32.2021C9.64425 33.4868 7.71716 34.8999 5.9186 36.57C2.96382 39.5248 0.908383 44.0212 0.522977 45.3059C0.26604 46.4621 -0.247898 47.7468 0.779852 48.5176C1.42219 49.0315 2.32151 48.7745 3.22079 48.1322C4.50547 47.3614 5.14782 46.5906 6.4325 45.5628C9.51575 42.865 11.4428 41.5803 14.783 40.2956C16.4531 39.6533 19.5363 39.1394 21.9772 39.0109C27.8867 38.8825 32.5117 42.608 36.3658 45.4344C39.449 47.6183 47.6709 52.8855 55.379 53.014C64.2434 53.2709 68.4829 49.5453 71.3092 46.5906C75.1632 42.608 76.3195 40.4241 77.6042 37.9832C78.2465 36.6985 79.0174 35.0284 79.2743 34.0006C79.1458 33.3583 78.7604 32.9729 78.2465 32.716Z" fill="white"/>
</svg>
